<svg width="564" height="536" viewBox="0 0 564 536" fill="none" xmlns="http://www.w3.org/2000/svg">
<g id="attacking bishop">
<path id="Vector 73" d="M439.225 401.383C439.937 401.245 440.553 401.409 441.211 401.361C441.965 401.305 442.639 402.123 443.333 402.256C445.6 402.691 447.298 404.708 449.291 405.676C450.323 406.178 451.63 407.137 452.346 408.069C453.031 408.961 453.922 409.644 454.6 410.527C455.23 411.348 455.845 412.141 456.353 413.042C456.646 413.562 457.129 414.05 457.33 414.612C457.508 415.109 457.596 415.701 457.907 416.138C458.503 416.977 458.997 418.501 459.191 419.507C459.422 420.697 460 421.817 460.23 423.004C460.659 425.222 461.724 428.367 460.686 430.503C460.36 431.173 460.261 431.928 459.821 432.579C459.528 433.013 459.216 433.415 459.043 433.906C458.887 434.346 458.286 434.68 458.102 435.173C457.737 436.15 456.847 436.88 456.298 437.692C455.555 438.792 454.521 439.663 453.613 440.644C451.414 443.019 449.046 445.274 446.682 447.511C445.654 448.484 444.37 449.07 443.215 449.85C442.472 450.352 441.734 450.983 440.911 451.341C439.973 451.748 439.053 452.212 438.094 452.569C437.026 452.966 435.941 453.687 434.846 453.961C433.989 454.175 432.941 454.879 432.217 455.384C431.287 456.034 430.195 456.417 429.231 457.037C427.964 457.852 426.524 458.377 425.263 459.171C423.745 460.127 421.966 460.662 420.387 461.551C418.299 462.728 416.224 463.889 414.016 464.824C407.879 467.424 401.84 470.239 395.608 472.676C392.162 474.023 388.871 475.741 385.39 476.994C382.461 478.048 379.268 478.503 376.212 479.051C373.167 479.597 370.146 480.224 367.106 480.812C362.807 481.644 358.647 482.844 354.381 483.806C349.462 484.916 344.411 485.94 339.426 486.7C337.526 486.989 335.426 487.524 333.509 487.492C331.853 487.465 330.016 487.518 328.376 487.762C325.056 488.256 321.671 488.401 318.321 488.662C314.321 488.973 310.315 489.311 306.302 489.178C304.715 489.126 303.134 489.272 301.549 489.233C300.118 489.199 298.757 488.963 297.341 488.882C294.089 488.696 290.639 488.684 287.444 488.104C285.884 487.82 284.339 487.55 282.771 487.219C281.706 486.994 280.334 486.544 279.263 486.591C277.769 486.657 276.198 486.225 274.721 486.023C273.106 485.802 271.502 485.552 269.884 485.33C264.796 484.634 259.154 484.065 254.653 481.394C250.729 479.066 247.304 475.981 243.525 473.427C241.22 471.87 238.865 469.442 237.742 466.859C237.347 465.948 237.109 464.91 236.82 463.962C236.442 462.721 235.947 461.37 235.703 460.108C235.237 457.699 235.129 455.429 236.053 453.087C236.906 450.923 237.926 448.945 239.027 446.904C239.551 445.933 240.292 445.118 241.062 444.33C241.844 443.53 242.25 442.671 242.866 441.76C243.707 440.515 245.126 439.451 246.592 440.195C247.412 440.611 247.849 441.078 248.795 441.297C249.465 441.451 250.318 442.015 250.864 442.384C252.79 443.685 255.09 443.987 257.111 445.014C259.1 446.024 261.487 446.448 263.677 446.698C264.544 446.797 265.373 447.155 266.229 447.32C267.017 447.471 267.978 447.488 268.724 447.751C270.407 448.345 272.467 448.679 274.229 448.937C278.432 449.554 282.502 450.731 286.744 451.139C290.904 451.539 295.009 452.241 299.19 452.208C302.07 452.185 304.894 452.724 307.775 452.537C310.684 452.348 313.409 452.311 316.305 451.751C319.728 451.089 323.216 450.776 326.65 450.111C330 449.463 333.534 448.799 336.943 448.623C340.197 448.454 343.509 448.116 346.714 447.496C350.08 446.845 353.52 446.185 356.824 445.269C361.074 444.092 365.543 443.492 369.874 442.654C373.76 441.902 377.514 440.688 381.377 439.886C383.076 439.534 384.756 439.258 386.409 438.732C387.734 438.31 389.009 437.749 390.321 437.292C393.157 436.304 395.794 434.688 398.501 433.398C401.102 432.159 403.709 430.869 406.233 429.471C407.617 428.704 408.967 427.897 410.399 427.218C411.454 426.717 412.818 426.127 413.642 425.284C414.929 423.968 416.49 422.854 417.857 421.615C418.567 420.97 419.524 420.515 420.275 419.881C420.951 419.309 421.709 418.602 422.489 418.186C427.144 415.706 430.634 411.504 433.523 407.229C434.474 405.823 435.466 404.321 436.566 403.063C437.934 401.499 438.906 400 439.495 397.894C440.571 394.044 440.153 390.285 439.407 386.425C438.983 384.232 438.34 382.189 437.55 380.102C436.744 377.972 435.589 376.105 434.456 374.129C433.91 373.177 433.26 372.03 432.56 371.189C431.954 370.46 431.317 369.328 430.565 368.772C428.789 367.459 427.442 365.509 425.545 364.327C423.87 363.283 422.396 361.836 420.76 360.73C418.212 359.009 415.691 357.399 413.363 355.378C412.219 354.385 410.574 353.796 409.277 352.953C407.482 351.787 405.939 350.607 404.492 348.995C403.957 348.4 403.314 347.919 402.765 347.34C402.532 347.095 402.166 346.325 402.036 346.637C401.935 346.877 400.611 347.163 400.397 347.255C397.748 348.391 394.996 349.565 392.176 350.262C389.429 350.941 386.809 352.229 384.117 353.067C382.217 353.659 380.372 354.795 378.432 355.263C376.651 355.692 374.818 356.818 373.212 357.679C372.467 358.078 371.461 358.528 370.655 358.747C369.365 359.097 368.177 359.625 366.912 360.023C362.099 361.538 357.297 363.165 352.514 364.758C345.785 366.999 339.073 369.207 332.091 370.558C319.341 373.024 306.289 375.748 293.28 374.438C288.854 373.993 284.494 373.931 280.044 373.753C275.06 373.554 270.227 372.692 265.352 371.933C264.627 371.82 263.632 371.457 262.904 371.642C262.614 371.716 261.955 372.477 261.76 372.688C260.923 373.592 259.928 374.419 259.204 375.423C258.609 376.249 257.651 376.885 256.976 377.673C256.295 378.469 255.567 379.222 254.936 380.057C253.149 382.422 251.324 384.597 249.808 387.159C248.966 388.58 247.768 389.813 246.998 391.28C246.345 392.523 245.747 393.818 244.995 395.004C243.664 397.1 243.055 399.255 242.287 401.577C240.864 405.88 240.032 410.552 240.058 415.092C240.07 417.149 240.018 419.473 240.35 421.486C240.648 423.29 240.73 425.169 241.233 426.933C242.17 430.219 242.63 434.048 244.766 436.831" stroke="black" stroke-width="10" stroke-linecap="round"/>
<path id="Vector 74" d="M402.478 344.912C405.187 340.904 400.862 334.809 396.871 333.481C394.142 332.573 391.106 332.03 388.221 331.834C386.947 331.748 385.444 331.745 384.192 331.988C383.686 332.085 383.139 332.126 382.691 332.391C381.94 332.835 380.951 333.649 380.149 333.885C377.624 334.627 375.5 336.319 373.002 337.096C371.438 337.583 370.132 338.602 368.7 339.269C366.815 340.148 364.984 341.224 363.049 342.054C361.489 342.723 359.949 343.372 358.381 344.022C352.538 346.443 346.264 347.443 340.069 348.642C334.126 349.791 328.297 351.595 322.358 352.744C319.785 353.242 317.311 353.946 314.743 354.443C313.346 354.713 311.95 354.983 310.553 355.254C309.002 355.553 307.394 355.439 305.843 355.714C303.491 356.129 300.828 356.393 298.438 356.42C296.243 356.444 293.478 357.039 291.377 356.382C290.07 355.974 288.516 356.046 287.168 355.605C286.651 355.437 286.032 355.494 285.49 355.416C284.788 355.316 284.152 354.96 283.438 354.911C282.061 354.818 280.256 354.124 278.925 354.381C277.555 354.646 276.067 354.031 274.696 354.084C271.913 354.191 269.201 353.556 266.465 354.085C264.412 354.482 263.272 355.91 262.187 357.619C261.683 358.413 261.304 359.145 261.038 360.097C260.727 361.208 260.847 362.408 260.5 363.47C259.883 365.358 260.463 367.463 259.942 369.329" stroke="black" stroke-width="10" stroke-linecap="round"/>
<path id="Vector 75" d="M387.6 330.848C384.68 331.084 380.334 329.257 378.246 327.29C376.632 325.769 374.734 325.024 373.34 323.208C371.779 321.175 369.693 319.551 368.12 317.501C365.283 313.806 361.59 310.759 359.303 306.642C357.001 302.498 354.751 298.41 352.958 294.003C350.971 289.118 348.485 284.429 346.686 279.498C346.078 277.83 345.281 276.236 344.55 274.615C343.378 272.017 342.729 269.124 342.19 266.334C341.603 263.3 340.822 260.382 340.235 257.348C339.969 255.975 339.921 254.608 339.658 253.247C339.501 252.437 339.183 251.531 339.275 250.709C339.339 250.139 339.273 249.017 339.167 248.467C338.955 247.372 339.19 247.271 340.302 247.056C341.705 246.785 343.132 245.538 344.447 244.966C346.457 244.093 348.617 242.996 350.421 241.753C354.097 239.219 358.414 236.894 360.948 233.144C361.9 231.737 363.054 230.084 363.629 228.461C364.208 226.829 364.658 224.797 365.446 223.295C365.658 222.892 365.616 221.816 365.556 221.373C365.441 220.534 365.84 219.617 365.697 218.745C365.375 216.767 365.365 214.788 364.984 212.817C364.251 209.029 361.299 206.658 358.212 204.691C355.119 202.72 351.886 203.447 348.521 202.69C347.663 202.497 346.64 202.469 345.756 202.455C345.133 202.445 343.503 202.653 343.004 202.229C342.882 202.125 341.552 202.185 341.366 202.221C340.624 202.364 339.968 202.275 339.248 202.414C338.463 202.566 338.198 202.651 337.676 203.247C336.975 204.049 335.93 204.801 335.341 205.673C334.067 207.558 331.872 209.197 329.825 210.255C324.607 212.952 319.22 214.954 313.449 216.071C310.737 216.595 308.039 217.334 305.299 217.864C303.103 218.289 300.896 218.282 298.744 218.699C295.743 219.279 292.667 218.691 289.65 218.725C288.313 218.74 287.019 218.444 285.689 218.408C284.246 218.368 282.769 218.279 281.38 217.845C280.34 217.521 279.23 217.292 278.168 217.046C277.695 216.937 276.604 216.959 276.251 216.659C275.805 216.279 274.432 216.153 273.819 215.842C273.547 215.704 272.657 215.171 272.372 215.146C271.603 215.079 270.944 215.627 270.241 215.763C269.323 215.941 268.498 216.138 267.645 216.47C266.767 216.812 265.684 216.642 264.86 217.129C264.353 217.429 263.302 217.756 262.74 217.864C260.295 218.337 257.925 220.114 255.834 221.367C255.225 221.732 254.345 222.347 253.957 222.922C253.578 223.483 252.909 224.367 252.438 224.84C251.814 225.468 251.137 226.302 250.769 227.161C250.352 228.134 249.771 229.059 249.374 230.031C248.741 231.579 248.45 233.445 248.368 235.16C248.269 237.25 248.6 239.749 249.505 241.656C250.325 243.387 251.392 246.102 252.927 247.277C253.62 247.807 254.179 248.839 254.711 249.532C255.446 250.489 256.452 251.156 257.343 251.935C259.022 253.404 261.116 255.442 263.47 254.987C265.62 254.571 267.926 254.653 270.111 254.352C272.863 253.972 275.644 254.656 278.379 254.473C279.21 254.418 280.043 254.026 280.402 254.852C280.674 255.478 281.04 255.971 281.174 256.665C281.538 258.545 282.117 260.42 282.492 262.356C283.774 268.984 285.255 275.52 286.536 282.143C287.402 286.618 287.564 291.056 287.515 295.602C287.489 298.016 286.921 300.311 286.722 302.701C286.526 305.051 285.551 307.349 285.375 309.677C285.226 311.664 284.557 313.494 284.201 315.429C283.721 318.04 282.849 320.804 281.943 323.292C280.596 326.99 279.168 330.752 278.032 334.496C276.88 338.293 275.088 342.06 273.239 345.557C272.316 347.305 270.767 350.186 268.954 351.153C267.994 351.664 267.141 352.698 266.307 353.398C265.52 354.058 264.92 354.94 264.26 355.695C262.914 357.234 261.385 358.886 260.721 360.918C260.242 362.38 259.472 363.619 259.49 365.26C259.509 366.879 259.309 368.74 259.618 370.338" stroke="black" stroke-width="10" stroke-linecap="round"/>
<path id="Vector 77" d="M454.819 416.81C454.188 417.744 453.624 418.834 453.098 419.835C452.629 420.729 452.164 422.346 451.389 423.03C450.801 423.548 450.295 424.57 449.783 425.207C448.959 426.23 448.057 427.202 447.172 428.179C442.288 433.568 435.276 436.767 429.469 441.021C426.747 443.016 423.799 445.191 420.796 446.754C415.661 449.425 410.269 451.308 404.936 453.49C400.289 455.392 395.631 456.922 390.865 458.486C388.423 459.288 386.075 460.28 383.662 461.178C380.735 462.267 377.727 463.085 374.749 464.007C368.3 466.003 361.592 467.475 354.966 468.756C347.278 470.244 339.549 471.546 331.852 473.035C322.803 474.785 313.584 475.513 304.446 476.641C300.996 477.067 297.608 477.881 294.1 477.72C291.487 477.601 288.749 476.876 286.224 476.262C283.409 475.579 280.608 475.137 277.754 474.618C275.409 474.192 273.168 473.607 270.853 473.1C266.013 472.04 260.616 471.22 256.149 468.951C254.233 467.978 252.201 467.542 250.382 466.312C248.552 465.075 246.474 464.282 244.628 463.071C243.358 462.238 242.076 461.532 240.94 460.588C240.409 460.145 239.659 459.8 239.261 459.282" stroke="black" stroke-width="10" stroke-linecap="round"/>
<path id="Vector 78" d="M432.575 377.671C430.182 379.508 427.665 381.176 425.17 382.868C422.774 384.494 420.813 386.675 418.417 388.326C415.638 390.242 412.73 392.033 409.873 393.84C406.135 396.206 402.374 398.087 398.351 399.931C393.949 401.948 389.516 403.829 384.97 405.501C380.181 407.263 375.587 409.608 370.688 411.075C367.961 411.89 365.364 413.154 362.678 414.083C359.625 415.139 356.526 416.012 353.375 416.73C347.596 418.046 341.7 419.192 335.888 420.317C329.501 421.552 323.091 423.093 316.623 423.807C313.058 424.201 309.468 424.357 305.902 424.723C302.716 425.05 299.52 425.508 296.321 425.654C291.303 425.883 286.263 425.497 281.288 424.904C277.018 424.396 272.539 424.459 268.581 422.707C266.872 421.951 265.024 421.771 263.325 420.989C262.009 420.383 260.595 419.961 259.22 419.509C257.908 419.078 256.507 418.878 255.241 418.348C254.09 417.865 252.599 417.779 251.573 417.127C249.779 415.988 247.732 414.956 246.351 413.31C245.64 412.463 244.303 411.974 243.655 411.129" stroke="black" stroke-width="10" stroke-linecap="round"/>
<path id="Vector 79" d="M338.439 260.343C337.483 261.757 335.814 262.484 334.368 263.254C332.302 264.355 329.663 265.13 327.383 265.571C325.778 265.881 324.181 266.46 322.624 266.974C320.202 267.773 317.534 268.055 315.032 268.539C312.042 269.117 308.996 269.321 306.006 269.899C303.583 270.368 300.964 270.669 298.503 270.868C296.515 271.028 294.47 271.326 292.475 271.261C291.399 271.227 290.436 270.98 289.372 271.186" stroke="black" stroke-width="10" stroke-linecap="round"/>
<path id="Vector 80" d="M363.447 220.944C357.14 223.883 350.926 226.879 344.397 229.263C340.264 230.772 335.999 231.565 331.805 232.815C328.681 233.745 325.293 234.117 322.094 234.736C319.54 235.23 317.084 236.091 314.535 236.584C308.994 237.656 303.484 238.824 297.966 239.983C295.394 240.523 292.856 241.444 290.199 241.528C287.865 241.602 285.535 241.547 283.197 241.488C280.891 241.431 278.518 241.224 276.217 241.337C274.474 241.423 272.897 241.077 271.168 240.962C264.637 240.529 258.191 239.156 251.733 238.308" stroke="black" stroke-width="10" stroke-linecap="round"/>
<path id="Vector 94" d="M273.477 213.188C273.441 212.898 271.601 212.949 271.235 212.807C270.462 212.508 269.648 212.104 268.95 211.665C267.326 210.642 265.606 209.774 263.861 208.999C260.426 207.472 257.448 205.21 255.429 201.995C254.061 199.816 252.758 197.642 251.769 195.245C250.992 193.366 250.303 191.383 249.399 189.575C247.644 186.065 246.492 181.927 245.442 178.149C244.889 176.157 244.067 174.256 243.538 172.246C242.978 170.119 242.504 167.978 241.951 165.845C241.28 163.256 241.486 160.504 241.486 157.847C241.486 154.348 241.967 150.961 242.395 147.49C242.791 144.281 243.533 141.14 244.109 137.969C244.573 135.416 244.812 132.788 245.76 130.352C246.205 129.207 246.65 127.846 246.818 126.628C247.062 124.855 247.8 123.348 248.426 121.698C249.291 119.416 250.135 117.042 250.817 114.694C251.611 111.957 252.924 109.398 254.054 106.781C254.709 105.265 255.185 103.664 255.863 102.158C257.5 98.52 258.362 94.6085 259.767 90.8909C260.326 89.4095 260.66 87.8204 261.142 86.3207C261.428 85.4294 261.524 84.529 261.861 83.6547C262.193 82.7958 262.047 81.8186 262.337 80.9464C262.725 79.7824 262.813 78.1637 262.813 76.9368C262.813 75.7641 263.194 74.7733 263.194 73.6043C263.194 72.8526 263.993 67.8915 263.279 67.8915C262.648 67.8915 262.017 67.8915 261.385 67.8915C260.831 67.8915 260.559 67.6338 260.052 67.5212C258.819 67.2472 258.646 66.4214 258.053 65.4582C257.568 64.6701 257.255 63.7565 256.868 62.9403C256.452 62.0613 255.018 60.6366 255.207 59.5973C255.316 58.9975 255.938 58.1627 256.244 57.6189C256.658 56.8822 257.172 56.204 257.767 55.6089C258.597 54.7793 259.904 53.9256 261.1 53.7998C263.363 53.5615 273.477 50.7266 273.477 55.2809C273.477 57.1487 273.311 60.3032 271.478 61.3217C270.291 61.9811 269.208 62.7988 268.071 63.5857C267.896 63.707 267.523 63.643 267.617 63.9348C267.732 64.295 268.037 64.6964 268.241 65.0139C268.501 65.4184 268.864 65.9106 269.288 66.1353C270.017 66.521 270.609 66.9555 271.383 67.3625C272.263 67.8256 273.115 67.9289 274.091 68.1242C274.992 68.3043 275.762 68.7702 276.62 69.034C278.328 69.5597 279.608 71.0876 281.095 71.9962C283.013 73.1685 284.791 74.8158 286.532 76.228C286.978 76.5889 287.34 77.0363 287.77 77.4129C288.117 77.7163 288.571 77.7025 288.902 77.9841C289.562 78.5452 290.48 79.0154 291.23 79.4653C294.514 81.4356 297.218 84.027 300.148 86.4688C301.533 87.6233 302.909 88.8454 304.136 90.161C305.239 91.3422 306.242 92.8365 307.469 93.8743C308.743 94.9526 310.03 95.8719 311.373 96.8788C313.386 98.3886 315.158 100.13 317.17 101.64C319.211 103.17 320.933 105.075 323.01 106.559C325.24 108.152 327.012 110.228 329.167 111.87C330.183 112.644 330.998 113.514 331.854 114.451C333.056 115.768 334.446 116.863 335.515 118.313C337.177 120.566 339.241 122.492 340.741 124.872C342.375 127.464 344.241 130.073 345.364 132.944C345.768 133.976 346.316 134.9 346.697 135.959C347.198 137.351 347.65 138.871 348.326 140.18C349.703 142.847 350.183 145.999 350.982 148.866C351.895 152.144 351.587 155.601 351.976 158.958C352.332 162.03 352.124 165.228 352.124 168.321C352.124 174.598 351.248 180.586 349.268 186.528C348.507 188.811 347.415 190.866 346.263 192.939C345.073 195.082 344.289 197.453 342.719 199.371C340.766 201.758 339.842 205.19 336.319 205.19" stroke="black" stroke-width="10" stroke-linecap="round"/>
<path id="Vector 95" d="M255.388 117.257C259.066 118.303 262.266 119.563 265.303 121.777C266.847 122.902 268.363 123.932 270.086 124.809C272.506 126.043 274.296 127.569 276.385 129.271C278.805 131.244 281.446 133.243 283.529 135.599C287.432 140.014 290.407 144.915 293.502 149.888C294.908 152.147 296.736 154.806 297.585 157.354C297.919 158.356 295.194 157.106 294.756 156.887C291.489 155.254 288.445 153.166 285.629 150.851C283.386 149.006 280.968 146.735 279.067 144.552C277.563 142.823 275.745 141.382 274.343 139.565C270.692 134.832 264.892 131.337 259.325 129.446C257.633 128.871 255.671 128.531 254.076 127.755C253.246 127.351 252.376 126.967 251.451 126.967" stroke="black" stroke-width="10" stroke-linecap="round"/>
<path id="Vector 93" d="M348.37 281.533C350.256 282.715 351.738 284.429 354.023 284.755C355.231 284.927 356.398 285.244 357.641 285.244C359.456 285.245 360.992 285.156 362.77 284.606C364.778 283.984 366.859 283.941 368.83 283.238C373.355 281.623 378.027 280.131 382.647 278.822C386.922 277.61 391.289 277.077 395.498 275.574C400.431 273.814 405.321 272.902 410.352 271.878C411.653 271.613 413.114 271.407 414.46 271.515C415.932 271.633 417.438 270.933 418.918 271.057C419.882 271.138 420.853 270.627 421.861 270.728C423.237 270.865 424.817 271.044 426.226 271.083C427.675 271.124 429.201 271.447 430.651 271.77C431.962 272.062 433.548 272.087 434.81 272.538C436.662 273.199 438.869 273.301 440.688 274.163C441.83 274.705 443.078 275.166 444.245 275.719C445.686 276.402 446.846 277.267 448.192 278.078C450.048 279.196 451.725 280.498 453.524 281.885C454.738 282.821 455.813 283.856 456.915 284.913C457.83 285.79 457.801 285.729 458.545 284.861C459.259 284.028 459.209 282.523 459.933 281.658C460.367 281.138 460.538 280.418 461.017 279.873C464.155 276.302 469.401 274.629 473.933 273.012C476.125 272.229 478.968 273.176 480.824 274.467C483.624 276.415 486.477 278.147 488.751 280.762C491.328 283.725 494.245 288.621 493.835 292.781C493.606 295.099 493.121 297.453 491.849 299.464C490.959 300.871 490.215 302.254 489.063 303.49C487.97 304.661 486.73 305.699 485.689 306.902C483.145 309.84 479.831 311.624 476.739 313.863C473.751 316.026 470.254 317.766 466.786 319.004C463.293 320.251 459.875 321.724 456.128 321.881C453.952 321.972 451.956 322.265 449.762 322.063C447.231 321.83 445.337 321.294 442.92 320.252C438.816 318.481 436.99 313.157 438.211 308.953C438.692 307.296 439.193 305.665 439.703 304.02C439.967 303.17 440.726 302.459 441.189 301.709C441.422 301.332 442.534 300.751 442.137 300.12C441.805 299.593 439.458 298.39 438.855 298.304C437.218 298.071 435.724 297.547 434.097 297.177C432.607 296.837 430.571 296.924 429.032 296.924C428.201 296.924 427.396 296.619 426.569 296.537C425.517 296.433 424.445 296.64 423.381 296.469C421.493 296.164 419.511 295.96 417.656 295.48C414.494 294.661 411.738 294.149 408.63 295.258C404.888 296.593 401.128 298.108 397.383 299.536C393.773 300.914 390.294 302.635 386.748 304.127C385.365 304.709 383.756 305.918 382.561 306.827C381.634 307.534 379.734 309.012 379.191 310.002C378.776 310.76 377.466 311.641 376.833 312.301C375.958 313.214 375.028 314.256 374.491 315.388" stroke="black" stroke-width="10" stroke-linecap="round"/>
<path id="Vector 91" d="M284.876 301.259C273.193 306.006 260.469 308.337 248.288 308.733C240.272 308.994 232.695 306.945 224.505 307.907C220.235 308.408 216.287 307.492 212.514 306.467C211.041 306.067 208.488 306.467 207.958 305.162" stroke="black" stroke-width="10" stroke-linecap="round"/>
<path id="Vector 92" d="M270.367 340.663C270.032 340.043 268.775 340.785 268.166 341.002C266.751 341.507 266.128 341.103 264.724 341.114C260.834 341.145 257.325 339.327 253.533 338.858C249.638 338.377 246.984 335.91 243.543 334.834C240.454 333.867 237.657 333.728 234.429 333.176C230.013 332.421 225.13 332.574 220.917 331.178C219.191 330.606 217.484 329.902 215.821 329.226C214.653 328.751 213.66 327.062 212.599 328.243" stroke="black" stroke-width="10" stroke-linecap="round"/>
<path id="Vector 32" d="M225.204 340.339C224.729 341.565 224.355 343.476 223.538 344.51C223.077 345.093 222.854 345.54 222.337 346.054C221.727 346.66 220.642 346.746 219.931 347.228C217.07 349.165 213.674 349.674 210.812 351.457C209.5 352.274 206.633 352.556 205.151 352.608C204.145 352.643 203.18 352.929 202.159 352.808C201.065 352.678 200.118 352.281 199.098 351.885C197.814 351.387 196.909 349.793 196.674 348.512C196.354 346.771 196.95 345.005 197.575 343.395C198.1 342.044 198.771 341.186 199.544 340.028C199.83 339.599 201.139 338.801 201.62 338.558C202.291 338.219 202.974 337.636 203.69 337.411C204.738 337.081 206.017 336.415 207.132 336.362C208.329 336.304 209.61 335.445 210.798 335.448C212.159 335.452 213.519 334.752 214.848 334.756C216.181 334.759 217.762 334.201 219.048 334.699C220.154 335.129 220.743 336.441 221.885 336.884C222.375 337.074 224.255 338.93 224.293 339.336" stroke="black" stroke-width="10" stroke-linecap="round"/>
<path id="Vector 33" d="M212.96 333.77C212.746 332.562 212.896 331.362 212.683 330.157C212.448 328.818 212.24 327.489 211.831 326.187C210.894 323.208 209.77 320.299 208.787 317.329C207.921 314.712 207.614 311.92 206.679 309.316C205.955 307.302 205.055 305.333 204.191 303.374C203.883 302.675 203.461 301.999 203.218 301.277C203.069 300.834 202.935 300.408 202.579 300.098C202.116 299.696 201.598 298.766 201.506 298.153C201.381 297.326 202.305 297.103 202.886 296.694C203.991 295.918 205.236 295.372 206.339 294.561C207.998 293.342 209.312 291.579 210.728 290.1C211.549 289.243 212.132 288.207 212.918 287.327C213.998 286.117 214.996 284.843 216.052 283.616C218.248 281.068 220.656 278.581 222.213 275.597C223.44 273.245 223.715 270.59 224.655 268.169C225.377 266.308 225.206 263.836 224.156 262.152C222.698 259.81 220.024 259.129 217.483 259.479C214.431 259.9 211.341 261.241 210.116 264.398C209.88 265.007 209.396 265.576 209.125 266.181C208.826 266.85 208.67 267.62 208.311 268.258C207.818 269.136 207.501 270.159 206.859 270.952C206.164 271.809 205.459 272.674 204.774 273.541C203.984 274.542 202.787 275.218 201.849 276.07C200.809 277.014 199.568 277.738 198.537 278.673C196.985 280.082 195.439 281.447 193.545 282.419C191.283 283.579 188.971 284.897 186.487 285.513C185.178 285.837 183.896 286.347 182.576 286.621C181.292 286.886 179.945 286.996 178.692 287.274C177.527 287.532 176.214 287.386 175.101 287.75C174.238 288.031 173.235 288.012 172.341 288.116C171.177 288.253 169.924 288.626 168.749 288.617C167.401 288.607 166.003 288.653 164.669 288.853C163.695 289 162.449 289.242 161.479 289.153C160.824 289.092 160.118 289.392 159.447 289.378C158.384 289.355 157.338 289.32 156.275 289.268C154.623 289.189 153.066 289.048 151.43 288.843C149.61 288.614 147.914 288.585 146.095 288.717C144.283 288.848 142.277 289.2 140.985 290.623C140.107 291.589 139.414 292.447 138.932 293.689C138.477 294.859 137.984 296.275 138.183 297.544C138.375 298.763 138.578 299.497 139.171 300.587C140.068 302.233 141.369 303.578 142.693 304.894C144.33 306.522 146.441 307.137 148.625 307.827C151.21 308.644 153.423 308.838 156.087 308.745C160.087 308.606 163.988 307.952 167.961 307.52C169.873 307.312 171.825 307.005 173.733 306.735C174.98 306.559 176.357 306.561 177.577 306.249C178.81 305.934 180.052 305.77 181.269 305.405C182.06 305.169 183.639 308.234 184.008 308.861C185.625 311.611 187.139 314.356 188.536 317.231C189.376 318.96 190.461 320.547 191.3 322.292C191.832 323.396 192.538 324.371 193.17 325.418C193.861 326.565 194.325 327.826 195.096 328.932C195.98 330.202 196.882 331.64 197.644 332.987C198.129 333.844 198.926 335.025 199.671 335.643" stroke="black" stroke-width="10" stroke-linecap="round"/>
<path id="Vector 34" d="M207.641 265.848C207.728 265.5 207.158 264.64 207.008 264.339C205.997 262.314 205.473 259.946 204.687 257.821C202.345 251.496 199.485 245.36 196.765 239.191C192.291 229.044 186.422 219.53 181.946 209.379C177.347 198.948 172.628 188.634 168.648 177.945C167.321 174.382 165.823 170.903 164.429 167.362C163.172 164.174 161.566 161.127 160.377 157.917C158.174 151.962 155.389 146.17 152.636 140.451C151.406 137.895 149.841 135.354 148.852 132.699C148.023 130.472 146.4 128.518 145.694 126.273C145.233 124.806 144.589 123.246 143.848 121.902C142.938 120.25 142.361 118.492 141.605 116.779C140.706 114.74 139.302 112.774 138.727 110.619C138.466 109.642 137.944 107.201 137.096 106.681C135.7 105.825 134.513 104.419 133.174 103.445C131.295 102.077 129.325 100.864 127.452 99.4984C123.58 96.6769 119.696 93.662 116.223 90.3809C114.725 88.9654 112.821 87.8415 111.176 86.5838C110.097 85.7589 108.9 85.1946 107.786 84.4452C106.921 83.8632 106.189 82.9867 105.238 82.5537C102.903 81.4912 101.108 79.2201 98.9275 77.8831C97.8243 77.2067 96.4359 75.9618 95.1022 76.6357C92.3818 78.0102 89.9273 80.2311 88.6967 83.0848C88.2267 84.1747 87.5004 85.1109 87.3868 86.3444C87.3364 86.8925 87.0158 87.3 87.0395 87.8792C87.0827 88.9347 86.7371 90.0279 86.6216 91.0788C86.3287 93.7417 86.4911 96.5949 86.044 99.2251C85.7927 100.704 85.7825 102.584 85.8756 104.078C85.9756 105.682 85.8526 107.486 85.7265 109.086C85.4907 112.076 85.8511 115.146 85.4943 118.144C85.275 119.988 85.1607 121.782 85.034 123.663C84.9706 124.604 84.7602 125.533 84.6762 126.446C84.6332 126.913 84.7971 127.522 84.6785 127.981C84.2811 129.518 85.0975 131.542 85.2411 133.072C85.4386 135.178 86.4396 137.188 87.0526 139.19C87.9849 142.234 89.1641 145.457 90.6002 148.305C92.0406 151.161 93.5491 154.196 94.665 157.192C95.1964 158.619 96.0923 159.907 96.7309 161.288C97.6462 163.267 98.656 165.218 99.6259 167.172C102.334 172.629 105.88 177.695 108.697 183.101C110.685 186.915 112.633 190.918 114.85 194.603C116.756 197.771 118.132 201.281 119.801 204.578C121.651 208.233 123.351 212.041 125.005 215.792C128.195 223.027 131.682 230.26 135.517 237.164C139.249 243.882 142.417 250.899 146.161 257.618C148.632 262.053 151.23 266.87 152.77 271.722C153.093 272.741 153.479 273.706 153.898 274.687C154.296 275.617 154.301 276.556 154.588 277.504C155.062 279.07 155.547 280.569 155.958 282.142C156.276 283.361 156.776 284.569 157.168 285.77C157.366 286.376 157.555 287.838 158.198 288.087" stroke="black" stroke-width="10" stroke-linecap="round"/>
<path id="Vector 35" d="M178.118 252.972C177.093 250.973 175.722 249.109 174.659 247.117C171.464 241.13 168.279 235.195 165.405 229.042C162.461 222.738 159.862 216.279 156.864 210.002C155.027 206.155 153.753 202.082 151.93 198.239C149.024 192.117 146.312 185.973 143.09 179.998C141.04 176.195 139.44 172.158 137.199 168.461" stroke="black" stroke-width="10" stroke-linecap="round"/>
<path id="Vector 36" d="M123.142 141.89C121.472 137.208 118.791 132.642 116.048 128.51C114.939 126.839 113.88 125.196 113.071 123.362C112.873 122.912 112.733 122.382 112.355 122.069" stroke="black" stroke-width="10" stroke-linecap="round"/>
<path id="Vector 96" d="M495.174 368.024C510.67 361.94 525.245 355.299 539.104 346.06" stroke="black" stroke-width="10" stroke-linecap="round"/>
<path id="Vector 97" d="M496.547 241.727C505.454 239.329 514.027 235.372 522.63 232.117" stroke="black" stroke-width="10" stroke-linecap="round"/>
<path id="Vector 98" d="M405.942 179.951C430.208 171.702 453.978 163.04 477.328 152.495" stroke="black" stroke-width="10" stroke-linecap="round"/>
<path id="Vector 99" d="M372.995 87.9731C402.217 78.1149 431.482 68.49 460.854 59.1443" stroke="black" stroke-width="10" stroke-linecap="round"/>
</g>
</svg>
