<svg width="16" height="16" viewBox="0 0 16 16" fill="none" xmlns="http://www.w3.org/2000/svg">
<rect width="16" height="16" fill="white"/>
<path d="M3.99316 14.0539C4.24382 14.0539 4.49335 14.04 4.74364 14.0346C5.19533 14.025 5.64831 14.0255 6.10027 14.0143C6.5963 14.0021 7.08812 14.0154 7.58412 14.0154C8.176 14.0154 8.77088 13.9975 9.36195 14.0304C9.77358 14.0532 10.1806 14.0924 10.5935 14.0924C10.844 14.0924 11.0945 14.0924 11.345 14.0924C11.4641 14.0924 11.6243 14.0978 11.7288 14.1501" stroke="black" stroke-linecap="round"/>
<path d="M4.10856 13.8038C4.08994 13.6362 4.00745 13.4421 3.94606 13.2842C3.89041 13.1411 3.8584 12.9555 3.8584 12.8031C3.8584 12.3478 3.91183 11.9265 4.11818 11.5138C4.18419 11.3818 4.27172 11.2006 4.39293 11.1097C4.45988 11.0595 4.56054 10.966 4.64736 10.9558C4.76606 10.9418 4.89365 10.8267 5.0087 10.7869C5.07973 10.7623 5.19303 10.7348 5.24817 10.6907C5.31629 10.6362 5.45812 10.6203 5.54109 10.5816C5.66361 10.5245 5.80881 10.5115 5.92702 10.4459C6.10055 10.3495 6.34947 10.2194 6.43696 10.0225C6.53809 9.79496 6.68588 9.56878 6.70636 9.30946C6.72265 9.10308 6.80257 8.89515 6.80257 8.68513C6.80257 8.58891 6.80257 8.4927 6.80257 8.39648" stroke="black" stroke-linecap="round"/>
<path d="M11.7869 14.0539C11.8611 14.0446 11.9069 13.8694 11.9226 13.8144C11.9497 13.7198 11.9793 13.6162 11.9793 13.5108C11.9793 13.3872 11.9793 13.2635 11.9793 13.1399C11.9793 13.0467 11.9754 12.9601 11.9643 12.8673C11.9541 12.7817 11.9264 12.6955 11.9216 12.6107C11.9072 12.3602 11.7532 12.0472 11.6329 11.8324C11.5602 11.7025 11.4872 11.5413 11.3828 11.4369C11.1612 11.2153 10.8191 11.1081 10.5179 11.0328C10.3615 10.9937 10.2102 10.9423 10.055 10.9023C9.89821 10.862 9.71124 10.8156 9.58354 10.7163C9.47697 10.6334 9.36438 10.5389 9.30024 10.417C9.2372 10.2972 9.13133 10.1432 9.13133 10.0033C9.13133 9.88631 9.0736 9.7652 9.0736 9.64726C9.0736 9.50634 9.0538 9.3467 9.03618 9.20575C9.02305 9.10067 8.99463 8.97826 9.03939 8.87755C9.08389 8.77742 9.11208 8.66162 9.11208 8.55042" stroke="black" stroke-linecap="round"/>
<path d="M6.76424 8.03085C6.55211 8.03085 6.30204 8.04352 6.10998 7.95815C6.00104 7.90974 5.92638 7.88889 5.83202 7.81169C5.72407 7.72337 5.66479 7.61823 5.60004 7.50167C5.46204 7.25327 5.6452 7.08916 5.83095 6.94469C5.90543 6.88677 6.07656 6.85703 6.16771 6.85703C6.2558 6.85703 6.40333 6.86672 6.47559 6.81854" stroke="black" stroke-linecap="round"/>
<path d="M9.09277 8.41569C9.36167 8.41569 9.65252 8.34496 9.90525 8.25747C10.0173 8.2187 10.1846 8.17335 10.258 8.07894C10.3393 7.97443 10.4013 7.84707 10.4013 7.71332C10.4013 7.64568 10.4308 7.60757 10.4056 7.53479C10.3736 7.44244 10.3231 7.37387 10.2666 7.29532C10.167 7.15693 10.0207 7.12012 9.89136 7.01951C9.80035 6.94873 9.64975 6.93365 9.53964 6.89977C9.48227 6.88212 9.24849 6.87979 9.22747 6.83777" stroke="black" stroke-linecap="round"/>
<path d="M6.8414 6.62612C6.71458 6.62612 6.59862 6.52648 6.50464 6.45293C6.32996 6.31622 6.1845 6.10059 6.0535 5.92375C5.83743 5.63206 5.61778 5.35015 5.49011 5.00971C5.37714 4.70846 5.28271 4.4305 5.28271 4.10529C5.28271 3.49143 5.88055 3.05507 6.3507 2.77646C6.83222 2.49111 7.40265 2.34438 7.96176 2.42688C8.33585 2.48207 8.68583 2.61471 9.03616 2.74866C9.33448 2.86272 9.62746 3.04432 9.82406 3.29709C9.89398 3.38699 9.91164 3.49227 9.94913 3.59642C9.99952 3.73638 10.0353 3.88177 10.0592 4.02832C10.112 4.35079 10.1127 4.68744 10.1127 5.01399C10.1127 5.22487 10.1615 5.51013 10.0838 5.71208C10.0393 5.82782 9.99012 6.02052 9.87323 6.08732C9.74993 6.15778 9.6259 6.23022 9.49692 6.29471C9.40959 6.33838 9.34724 6.43156 9.26601 6.47218" stroke="black" stroke-linecap="round"/>
</svg>
